<svg xmlns="http://www.w3.org/2000/svg">
  <symbol id="arrow-right" viewBox="0 0 24 24"><path d="M5 12h14M13 6l6 6-6 6"/></symbol>
  <symbol id="bug" viewBox="0 0 24 24"><path d="M8 2l1.9 2.5M16 2l-1.9 2.5M9 7h6a3 3 0 0 1 3 3v5a6 6 0 0 1-12 0v-5a3 3 0 0 1 3-3ZM3 13h3M18 13h3M4 7l3 2M20 7l-3 2M4 19l3-2M20 19l-3-2"/></symbol>
  <symbol id="check" viewBox="0 0 24 24"><path d="m5 12 4 4L19 6"/></symbol>
  <symbol id="download" viewBox="0 0 24 24"><path d="M12 3v12M7 10l5 5 5-5M5 21h14"/></symbol>
  <symbol id="gauge" viewBox="0 0 24 24"><path d="M4.9 19a9 9 0 1 1 14.2 0M12 13l4-4M7 19h10"/></symbol>
  <symbol id="github" viewBox="0 0 24 24"><path d="M15 22v-4a4.8 4.8 0 0 0-1-3.5c3.3-.4 6.8-1.6 6.8-7.4A5.8 5.8 0 0 0 19.3 3 5.4 5.4 0 0 0 19.1-.9S17.9-1.3 15 1a13.4 13.4 0 0 0-6 0C6.1-1.3 4.9-.9 4.9-.9A5.4 5.4 0 0 0 4.7 3a5.8 5.8 0 0 0-1.5 4.1c0 5.8 3.5 7 6.8 7.4A4.8 4.8 0 0 0 9 18v4M9 19c-3 .9-3-1.5-4-2"/></symbol>
  <symbol id="history" viewBox="0 0 24 24"><path d="M3 12a9 9 0 1 0 3-6.7L3 8M3 3v5h5M12 7v5l3 2"/></symbol>
  <symbol id="lightbulb" viewBox="0 0 24 24"><path d="M9 18h6M10 22h4M8.5 15.5A7 7 0 1 1 15.5 15.5C14.6 16.2 14 17 14 18h-4c0-1-.6-1.8-1.5-2.5Z"/></symbol>
  <symbol id="lock" viewBox="0 0 24 24"><rect x="4" y="10" width="16" height="11" rx="2"/><path d="M8 10V7a4 4 0 0 1 8 0v3M12 14v3"/></symbol>
  <symbol id="menu" viewBox="0 0 24 24"><path d="M4 6h16M4 12h16M4 18h16"/></symbol>
  <symbol id="palette" viewBox="0 0 24 24"><path d="M12 3a9 9 0 0 0 0 18h1.5a1.5 1.5 0 0 0 0-3H12a2 2 0 0 1 0-4h3a6 6 0 0 0 0-12h-3Z"/><circle cx="7.5" cy="10.5" r=".7"/><circle cx="9.5" cy="6.8" r=".7"/><circle cx="14" cy="6.5" r=".7"/></symbol>
  <symbol id="picture-in-picture" viewBox="0 0 24 24"><rect x="3" y="5" width="18" height="14" rx="2"/><rect x="11" y="11" width="8" height="6" rx="1"/></symbol>
  <symbol id="play" viewBox="0 0 24 24"><path d="m8 5 11 7-11 7Z"/></symbol>
  <symbol id="puzzle" viewBox="0 0 24 24"><path d="M19 13h2v6a2 2 0 0 1-2 2h-6v-2a2 2 0 1 0-4 0v2H5a2 2 0 0 1-2-2v-4h2a2 2 0 1 0 0-4H3V5a2 2 0 0 1 2-2h6v2a2 2 0 1 0 4 0V3h4a2 2 0 0 1 2 2v4h-2a2 2 0 1 0 0 4Z"/></symbol>
  <symbol id="refresh" viewBox="0 0 24 24"><path d="M20 12a8 8 0 0 1-14.9 4M4 12A8 8 0 0 1 18.9 8M5 20v-4h4M19 4v4h-4"/></symbol>
  <symbol id="shield-check" viewBox="0 0 24 24"><path d="M12 22s8-4 8-10V5l-8-3-8 3v7c0 6 8 10 8 10Z"/><path d="m9 12 2 2 4-4"/></symbol>
  <symbol id="sparkles" viewBox="0 0 24 24"><path d="m12 3-1.4 3.6L7 8l3.6 1.4L12 13l1.4-3.6L17 8l-3.6-1.4ZM5 15l-.8 2.2L2 18l2.2.8L5 21l.8-2.2L8 18l-2.2-.8ZM19 13l-.8 2.2L16 16l2.2.8L19 19l.8-2.2L22 16l-2.2-.8Z"/></symbol>
  <symbol id="stream" viewBox="0 0 24 24"><rect x="3" y="4" width="18" height="14" rx="2"/><path d="m10 8 6 3-6 3ZM9 22h6"/></symbol>
  <symbol id="x" viewBox="0 0 24 24"><path d="m6 6 12 12M18 6 6 18"/></symbol>
</svg>
